<?xml version="1.0" standalone="no"?>
<!DOCTYPE svg PUBLIC "-//W3C//DTD SVG 20010904//EN"
 "http://www.w3.org/TR/2001/REC-SVG-20010904/DTD/svg10.dtd">
<svg version="1.0" xmlns="http://www.w3.org/2000/svg"
 width="450.000000pt" height="450.000000pt" viewBox="0 0 450.000000 450.000000"
 preserveAspectRatio="xMidYMid meet">

<g transform="translate(0.000000,450.000000) scale(0.100000,-0.100000)"
fill="#000000" stroke="none">
<path d="M2172 3819 c-298 -53 -509 -240 -584 -518 -29 -108 -29 -305 0 -414
62 -228 220 -400 440 -478 216 -76 444 -61 647 44 58 30 102 63 161 121 90 90
129 153 171 271 26 76 28 89 28 250 0 161 -2 174 -28 250 -42 119 -81 181
-171 270 -94 93 -199 154 -323 186 -90 23 -263 33 -341 18z"/>
<path d="M1616 2245 c-543 -245 -903 -759 -933 -1332 -5 -93 -3 -113 8 -113 8
0 104 -13 214 -30 475 -70 832 -95 1355 -94 441 0 641 11 1026 54 172 20 496
66 522 75 18 6 16 240 -3 348 -77 440 -394 840 -839 1058 -55 27 -104 49 -111
49 -6 0 -37 -25 -68 -55 -151 -147 -366 -221 -567 -196 -167 21 -290 82 -411
204 -43 42 -81 77 -86 77 -4 0 -52 -20 -107 -45z"/>
</g>
</svg>
